<?xml version="1.0" encoding="utf-8"?>
<!-- Generator: Adobe Illustrator 21.0.0, SVG Export Plug-In . SVG Version: 6.00 Build 0)  -->
<svg version="1.1" id="Layer_1" xmlns="http://www.w3.org/2000/svg" xmlns:xlink="http://www.w3.org/1999/xlink" x="0px" y="0px"
	 viewBox="0 0 52.2 44.3" style="enable-background:new 0 0 52.2 44.3;" xml:space="preserve">
<style type="text/css">
	.st0{fill:#F20487;}
	.st1{fill:#FFFFFF;}
</style>
<g>
	<path class="st0" d="M49.3,25.5c0,10-8.1,18.1-18.1,18.1c-7.7,0-14.6-4.9-17.1-12.2c-0.6,0.3-1.3,0.5-1.9,0.5
		c-2.3,0-4.1-1.8-4.1-4.1s1.8-4.1,4.1-4.1c0,0,0,0,0,0l0,0c0.3,0,0.7,0,1,0c0.1-0.9,0.2-1.8,0.5-2.6h-0.5c-3.1,0.1-5.6-2.4-5.7-5.5
		C7.5,12.4,9.9,9.9,13,9.9c2.2,0,4.2,1.2,5.1,3.2c0.7-0.8,1.5-1.5,2.4-2.2c-1.9-1.3-2.3-3.9-1-5.8s3.9-2.3,5.8-1
		c1.1,0.8,1.7,2,1.8,3.3v0.5c1.4-0.3,2.8-0.5,4.2-0.5C41.3,7.4,49.3,15.5,49.3,25.5z"/>
	<circle class="st0" cx="5.2" cy="22.2" r="2.4"/>
	<circle class="st0" cx="5.2" cy="11.6" r="1.8"/>
	<circle class="st0" cx="12.9" cy="4.2" r="3.5"/>
	<path class="st1" d="M36.1,30.5c0.7,0.6,1.3,1.2,1.8,1.9l0,0c0.1,0.1,0.2,0.3,0.2,0.5c0,0.3-0.2,0.4-0.5,0.4c-0.1,0-0.1,0-0.2-0.1
		c-0.2,0-0.3-0.1-0.4-0.2l0,0c-0.5-0.6-1-1.2-1.6-1.7c-1-0.9-2.3-1.4-3.6-1.4c-0.4,0-0.8,0.1-1.2,0.2c-0.4,0.2-0.7,0.4-1,0.6
		c-0.4,0.3-0.7,0.5-1,0.8l-1,0.9c-0.4,0.3-0.8,0.5-1.2,0.7c-0.4,0.2-0.9,0.3-1.4,0.3c-0.5,0.1-0.9,0.1-1.4,0h0
		c-0.5-0.3-0.8-0.8-0.9-1.4c0-0.8,0.4-1.6,1.1-2.1h0.1c0-0.2,0-0.4,0-0.5c0.1-0.2,0.2-0.4,0.3-0.5l6.3-7.7c0.6,1.3,1.6,2.4,3,3
		l-7.6,6.3c-0.2,0.1-0.3,0.2-0.6,0.3c-0.2,0.1-0.4,0.1-0.6,0h0c-0.2,0.1-0.3,0.3-0.4,0.5c-0.2,0.2-0.3,0.4-0.3,0.7
		c0,0.2,0.1,0.4,0.3,0.5c0.4,0.1,0.9,0.1,1.3,0c0.4-0.1,0.8-0.3,1.2-0.6l1.1-0.9l0,0l1.1-0.9c0.4-0.3,0.8-0.6,1.3-0.7
		c0.5-0.2,1-0.3,1.5-0.3C33.3,28.9,34.9,29.5,36.1,30.5z M35.7,23.2c-0.6,0-1.1-0.1-1.7-0.3c-1.1-0.5-1.9-1.3-2.4-2.4
		c-0.2-0.5-0.3-1.1-0.3-1.7c0-0.5,0.2-1.1,0.5-1.5c0.7,2.7,2.8,4.8,5.5,5.5C36.8,23.1,36.2,23.2,35.7,23.2z M38.3,18.6
		c0.2,0.5,0.3,1.1,0.3,1.7c0,0.5-0.2,1.1-0.5,1.5c-1.4-0.2-2.6-0.9-3.6-1.9c-0.5-0.4-0.9-1-1.3-1.5c-0.3-0.6-0.5-1.3-0.7-2
		c0.5-0.3,1-0.5,1.6-0.5c0.6,0,1.1,0.1,1.7,0.3C36.9,16.7,37.8,17.6,38.3,18.6L38.3,18.6z"/>
</g>
</svg>
